{"title":"22 Jump Street (2014) TS [RUS]","uid":10659976,"size":734896128,"categoryP":"video","categoryS":"movies","magnet":"?xt=urn:btih:96e4828cbc9693492774cebed3801cb94851e014&amp;dn=22+Jump+Street+%282014%29+TS+%5BRUS%5D&amp;tr=udp%3A%2F%2Ftracker.openbittorrent.com%3A80&amp;tr=udp%3A%2F%2Fopen.demonii.com%3A1337&amp;tr=udp%3A%2F%2Ftracker.coppersurfer.tk%3A6969&amp;tr=udp%3A%2F%2Fexodus.desync.com%3A6969","seeders":1,"leechers":0,"uploader":"yfjfrj","files":1,"time":1406712067,"description":"22 Jump Street (2014) TS [RUS]\n\nMI:\nGeneral\nComplete name                            : D:moviesMa40.i.B07an.2.2014.D.TS.700MB.avi\nFormat                                   : AVI\nFormat/Info                              : Audio Video Interleave\nFile size                                : 701 MiB\nDuration                                 : 1h 42mn\nOverall bit rate                         : 958 Kbps\nWriting application                      : VirtualDubMod 1.5.10.2 (build 2540/release)\nWriting library                          : VirtualDubMod build 2540/release\n\nVideo\nID                                       : 0\nFormat                                   : MPEG-4 Visual\nFormat profile                           : Advanced Simple@L5\nFormat settings, BVOP                    : 2\nFormat settings, QPel                    : No\nFormat settings, GMC                     : No warppoints\nFormat settings, Matrix                  : Default (MPEG)\nCodec ID                                 : XVID\nCodec ID/Hint                            : XviD\nDuration                                 : 1h 42mn\nBit rate                                 : 789 Kbps\nWidth                                    : 688 pixels\nHeight                                   : 288 pixels\nDisplay aspect ratio                     : 2.40:1\nFrame rate                               : 23.976 fps\nColor space                              : YUV\nChroma subsampling                       : 4:2:0\nBit depth                                : 8 bits\nScan type                                : Progressive\nCompression mode                         : Lossy\nBits/(Pixel*Frame)                       : 0.166\nStream size                              : 577 MiB (82%)\nWriting library                          : XviD 1.2.1 (UTC 2008-12-04)\n\nAudio\nID                                       : 1\nFormat                                   : MPEG Audio\nFormat version                           : Version 1\nFormat profile                           : Layer 3\nMode                                     : Joint stereo\nMode extension                           : MS Stereo\nCodec ID                                 : 55\nCodec ID/Hint                            : MP3\nDuration                                 : 1h 42mn\nBit rate mode                            : Constant\nBit rate                                 : 160 Kbps\nChannel(s)                               : 2 channels\nSampling rate                            : 48.0 KHz\nCompression mode                         : Lossy\nStream size                              : 117 MiB (17%)\nAlignment                                : Aligned on interleaves\nInterleave, duration                     : 42 ms (1.00 video frame)\nInterleave, preload duration             : 504 ms\n\nScreenshots: &lt;a href=&quot;\nhttp://i4.imageban.ru/out/2014/07/30/67acb155d93eafcd2265f3eb5272ab3b.png&quot; rel=&quot;nofollow&quot; target=&quot;_NEW&quot;&gt;\nhttp://i4.imageban.ru/out/2014/07/30/67acb155d93eafcd2265f3eb5272ab3b.png&lt;/a&gt; &lt;a href=&quot;\nhttp://i1.imageban.ru/out/2014/07/30/02dbd0840cdf6ad94639e2603a06446b.png&quot; rel=&quot;nofollow&quot; target=&quot;_NEW&quot;&gt;\nhttp://i1.imageban.ru/out/2014/07/30/02dbd0840cdf6ad94639e2603a06446b.png&lt;/a&gt; &lt;a href=&quot;\nhttp://i1.imageban.ru/out/2014/07/30/120e950d3aa6f536eafd8281ea6a7057.png&quot; rel=&quot;nofollow&quot; target=&quot;_NEW&quot;&gt;\nhttp://i1.imageban.ru/out/2014/07/30/120e950d3aa6f536eafd8281ea6a7057.png&lt;/a&gt; &lt;a href=&quot;\nhttp://i6.imageban.ru/out/2014/07/30/ad76efac6cd195d9b042f7cfc8e1245c.png&quot; rel=&quot;nofollow&quot; target=&quot;_NEW&quot;&gt;\nhttp://i6.imageban.ru/out/2014/07/30/ad76efac6cd195d9b042f7cfc8e1245c.png&lt;/a&gt; &lt;a href=&quot;\nhttp://i1.imageban.ru/out/2014/07/30/71471fa0bcc851df3f5dd3107ce9d954.png&quot; rel=&quot;nofollow&quot; target=&quot;_NEW&quot;&gt;\nhttp://i1.imageban.ru/out/2014/07/30/71471fa0bcc851df3f5dd3107ce9d954.png&lt;/a&gt; &lt;a href=&quot;\nhttp://i1.imageban.ru/out/2014/07/30/c5961fbbef5d6927a9a333d0f8de2c0f.png&quot; rel=&quot;nofollow&quot; target=&quot;_NEW&quot;&gt;\nhttp://i1.imageban.ru/out/2014/07/30/c5961fbbef5d6927a9a333d0f8de2c0f.png&lt;/a&gt; &lt;a href=&quot;\nhttp://i6.imageban.ru/out/2014/07/30/d704573535da7658340cd65e8ff88182.png&quot; rel=&quot;nofollow&quot; target=&quot;_NEW&quot;&gt;\nhttp://i6.imageban.ru/out/2014/07/30/d704573535da7658340cd65e8ff88182.png&lt;/a&gt; &lt;a href=&quot;\nhttp://i6.imageban.ru/out/2014/07/30/874cf47cccb40fa0bcc5de92bd77a4dd.png&quot; rel=&quot;nofollow&quot; target=&quot;_NEW&quot;&gt;\nhttp://i6.imageban.ru/out/2014/07/30/874cf47cccb40fa0bcc5de92bd77a4dd.png&lt;/a&gt; &lt;a href=&quot;\nhttp://i5.imageban.ru/out/2014/07/30/d8c7e2e095025a9d505b32ff00634610.png&quot; rel=&quot;nofollow&quot; target=&quot;_NEW&quot;&gt;\nhttp://i5.imageban.ru/out/2014/07/30/d8c7e2e095025a9d505b32ff00634610.png&lt;/a&gt; &lt;a href=&quot;\nhttp://i4.imageban.ru/out/2014/07/30/f338847e13d02996b2541861b3eafb15.png&quot; rel=&quot;nofollow&quot; target=&quot;_NEW&quot;&gt;\nhttp://i4.imageban.ru/out/2014/07/30/f338847e13d02996b2541861b3eafb15.png&lt;/a&gt; &lt;a href=&quot;\nhttp://i1.imageban.ru/out/2014/07/30/712b1bd674285a78305f947286aaadbf.png&quot; rel=&quot;nofollow&quot; target=&quot;_NEW&quot;&gt;\nhttp://i1.imageban.ru/out/2014/07/30/712b1bd674285a78305f947286aaadbf.png&lt;/a&gt; &lt;a href=&quot;\nhttp://i1.imageban.ru/out/2014/07/30/83708998b0e237b0e1bbae9e3b3e15e9.png&quot; rel=&quot;nofollow&quot; target=&quot;_NEW&quot;&gt;\nhttp://i1.imageban.ru/out/2014/07/30/83708998b0e237b0e1bbae9e3b3e15e9.png&lt;/a&gt;","torrent":{"xt":"urn:btih:96e4828cbc9693492774cebed3801cb94851e014","amp;dn":"22+Jump+Street+%282014%29+TS+%5BRUS%5D","amp;tr":["udp%3A%2F%2Ftracker.openbittorrent.com%3A80","udp%3A%2F%2Fopen.demonii.com%3A1337","udp%3A%2F%2Ftracker.coppersurfer.tk%3A6969","udp%3A%2F%2Fexodus.desync.com%3A6969"],"infoHash":"96e4828cbc9693492774cebed3801cb94851e014","infoHashBuffer":{"type":"Buffer","data":[150,228,130,140,188,150,147,73,39,116,206,190,211,128,28,185,72,81,224,20]},"announce":[],"urlList":[]}}